<svg xmlns="http://www.w3.org/2000/svg" width="38.625" height="29.031" viewBox="0 0 38.625 29.031">
  <defs>
    <style>
      .cls-1 {
        fill: #fff;
        fill-rule: evenodd;
      }
    </style>
  </defs>
  <path id="icon-ok" class="cls-1" d="M423.475,491.472l-23.109,23.109a1.207,1.207,0,0,1-1.708,0l-3.416-3.447c-0.469-.477-1.239-1.251-1.708-1.728l-7.946-8.351a1.27,1.27,0,0,1-.358-0.878,1.2,1.2,0,0,1,.358-0.847l3.482-3.138a1.2,1.2,0,0,1,1.708,0l7.88,8.04a1.2,1.2,0,0,0,1.708,0L418.353,486.3a1.2,1.2,0,0,1,1.706,0l3.416,3.449A1.23,1.23,0,0,1,423.475,491.472Z" transform="translate(-385.219 -485.938)"/>
</svg>
