<svg xmlns="http://www.w3.org/2000/svg" xmlns:xlink="http://www.w3.org/1999/xlink" width="21" height="21" viewBox="0 0 21 21">
  <defs>
    <style>
      .cls-1 {
        fill: #34495e;
        fill-rule: evenodd;
        filter: url(#filter);
      }
    </style>
    <filter id="filter" x="880" y="427" width="21" height="21" filterUnits="userSpaceOnUse">
      <feFlood result="flood" flood-color="#ee3643"/>
      <feComposite result="composite" operator="in" in2="SourceGraphic"/>
      <feBlend result="blend" in2="SourceGraphic"/>
    </filter>
  </defs>
  <path id="Cross_16x16_copy" data-name="Cross (16x16) copy" class="cls-1" d="M900.745,429.514a0.808,0.808,0,0,1,0,1.14l-6.276,6.269a0.808,0.808,0,0,0,0,1.14l6.273,6.272a0.808,0.808,0,0,1,0,1.139l-2.285,2.278a0.812,0.812,0,0,1-1.141,0l-6.271-6.272a0.811,0.811,0,0,0-1.141,0l-6.276,6.267a0.811,0.811,0,0,1-1.141,0l-2.282-2.281a0.806,0.806,0,0,1,0-1.139l6.277-6.268a0.808,0.808,0,0,0,0-1.14l-6.272-6.272a0.808,0.808,0,0,1,0-1.14l2.284-2.277a0.81,0.81,0,0,1,1.141,0l6.271,6.269a0.808,0.808,0,0,0,1.14,0l6.276-6.266a0.811,0.811,0,0,1,1.141,0Z" transform="translate(-880 -427)"/>
</svg>
